<!-- icon666.com - MILLIONS vector ICONS FREE --><svg viewBox="0 0 64 64" xmlns="http://www.w3.org/2000/svg"><g id="Layer_28" data-name="Layer 28"><path d="m43 11a14.911 14.911 0 0 1 3.02-9h-.02a17 17 0 1 0 15.7 23.521 14.945 14.945 0 0 1 -18.7-14.521z" fill="hsla(37,60%,49%,1)"></path><path d="m33.3 15a16.986 16.986 0 0 0 26.235 14.262 16.92 16.92 0 0 0 2.165-3.741 14.973 14.973 0 0 1 -15.68-23.521h-.02a16.909 16.909 0 0 0 -9.227 2.734 16.908 16.908 0 0 0 -3.473 10.266z" fill="hsla(44,100%,20%,1)" style="fill: rgb(255, 255, 0);"></path><path d="m17 44-8 10h8l-3 8 11-12h-8l5-6" fill="hsla(44,100%,20%,1)" style="fill: rgb(255, 255, 0);"></path><path d="m13 52 6.222-8h-2.222l-8 10h8l-2.478 6.609 5.478-8.609z" fill="hsla(37,60%,49%,1)"></path><g fill="hsla(180,60%,50%,1)"><path d="m35 44h2v5h-2z" fill="hsla(180,60%,50%,1)"></path><path d="m41 47h2v13h-2z" fill="hsla(180,60%,50%,1)"></path><path d="m47 44h2v9h-2z" fill="hsla(180,60%,50%,1)"></path></g><path d="m48 37a7 7 0 0 1 -7 7h-32a7 7 0 0 1 0-14 6.92 6.92 0 0 1 3.01.68 11 11 0 0 1 20.85-4.57 5 5 0 0 1 8.14 3.89 7 7 0 0 1 7 7z" fill="hsla(0,0%,40%,1)"></path><path d="m32 33a5 5 0 0 0 -8.14-3.89 11.011 11.011 0 0 0 -8.5-6.021 10.938 10.938 0 0 0 -3.35 7.591 6.92 6.92 0 0 0 -3.01-.68 7 7 0 0 0 0 14h28.742a7 7 0 0 0 -5.742-11z" fill="hsla(0,0%,60%,1)"></path></g></svg>