<!-- icon666.com - MILLIONS vector ICONS FREE --><svg viewBox="0 0 64 64" xmlns="http://www.w3.org/2000/svg"><g id="night_rain" data-name="night rain"><g fill="hsla(203,60%,46%,1)"><path d="m28 57a1 1 0 0 1 -1-1v-8a1 1 0 0 1 2 0v8a1 1 0 0 1 -1 1z" fill="hsla(203,60%,46%,1)"></path><path d="m20 51a1 1 0 0 1 -1-1v-4a1 1 0 0 1 2 0v4a1 1 0 0 1 -1 1z" fill="hsla(203,60%,46%,1)"></path><path d="m36 51a1 1 0 0 1 -1-1v-4a1 1 0 0 1 2 0v4a1 1 0 0 1 -1 1z" fill="hsla(203,60%,46%,1)"></path><path d="m36 61a1 1 0 0 1 -1-1v-4a1 1 0 0 1 2 0v4a1 1 0 0 1 -1 1z" fill="hsla(203,60%,46%,1)"></path><path d="m20 61a1 1 0 0 1 -1-1v-4a1 1 0 0 1 2 0v4a1 1 0 0 1 -1 1z" fill="hsla(203,60%,46%,1)"></path></g><path d="m58.19 22.55a1 1 0 0 0 -1.24.12l-.14.14c-.1.09-.19.19-.3.28a10 10 0 1 1 -8.07-17.46 1 1 0 0 0 .14-1.94 15.5 15.5 0 1 0 5.52 26.57 15.63 15.63 0 0 0 4.49-6.54 1 1 0 0 0 -.4-1.17z" fill="hsla(0,0%,36%,1)" style="fill: rgb(255, 255, 0);"></path><path d="m46.69 33.51a8.55 8.55 0 0 0 -7.69-7.37 8.4 8.4 0 0 0 -2.19.1 9.44 9.44 0 0 0 -18.56-2 9.43 9.43 0 0 0 -8.13 10.89 9.63 9.63 0 0 0 9.57 7.87h18.61a8.45 8.45 0 0 0 8.39-9.49z" fill="hsla(199,18%,33%,1)"></path></g></svg>