<!-- icon666.com - MILLIONS vector ICONS FREE --><svg viewBox="0 0 512.00002 512.00002" xmlns="http://www.w3.org/2000/svg"><g fill="#ffe532"><path d="m417.179688 256c0 88.871094-72.308594 161.179688-161.179688 161.179688h-.050781c-88.847657-.03125-161.128907-72.328126-161.128907-161.179688s72.28125-161.148438 161.128907-161.179688h.050781c88.871094 0 161.179688 72.308594 161.179688 161.179688zm0 0"></path><path d="m241 0h30v58.328125h-30zm0 0"></path><path d="m241 453.671875h30v58.328125h-30zm0 0"></path><path d="m64.375 85.585938 21.210938-21.210938 41.25 41.246094-21.214844 21.214844zm0 0"></path><path d="m447.628906 426.410156-21.21875 21.21875-41.238281-41.25 21.207031-21.207031zm0 0"></path><path d="m0 241h58.332031v30h-58.332031zm0 0"></path><path d="m453.671875 241h58.328125v30h-58.328125zm0 0"></path><path d="m64.371094 426.410156 41.25-41.246094 21.210937 21.210938-41.246093 41.25zm0 0"></path><path d="m447.628906 85.589844-41.25 41.238281-21.207031-21.207031 41.238281-41.25zm0 0"></path></g><path d="m255.949219 0h15.050781v58.328125h-15.050781zm0 0" fill="#ffba36"></path><path d="m255.949219 453.671875h15.050781v58.328125h-15.050781zm0 0" fill="#ffba36"></path><path d="m417.179688 256c0 88.871094-72.308594 161.179688-161.179688 161.179688h-.050781v-322.359376h.050781c88.871094 0 161.179688 72.308594 161.179688 161.179688zm0 0" fill="#ffba36"></path><path d="m426.410156 64.371094 21.21875 21.21875-41.25 41.238281-21.207031-21.207031zm0 0" fill="#ffba36"></path><path d="m406.378906 385.171875 41.25 41.238281-21.21875 21.21875-41.238281-41.25zm0 0" fill="#ffba36"></path><path d="m453.671875 241h58.328125v30h-58.328125zm0 0" fill="#ffba36"></path></svg>