<!-- icon666.com - MILLIONS vector ICONS FREE --><svg id="Capa_1" enable-background="new 0 0 512 512" viewBox="0 0 512 512" xmlns="http://www.w3.org/2000/svg"><g><g><path d="m447.665 395.745c10.884 5.299 24.003.771 29.302-10.114 6.06-12.448.996-29.77-1.993-37.821-.964-2.596-3.784-3.971-6.422-3.128-8.18 2.613-24.94 9.311-31 21.761-5.299 10.884-.771 24.003 10.113 29.302z" fill="hsla(213,60%,20%,1)" style="fill: rgb(214, 228, 245);"></path><path d="m468.568 344.677c-3.024.965-7.226 2.49-11.627 4.66 3 8.558 7.148 24.579 1.445 36.294-2.284 4.692-6.025 8.194-10.411 10.246 10.823 5.066 23.742.536 28.991-10.246 6.06-12.448.996-29.77-1.993-37.821-.961-2.59-3.773-3.974-6.405-3.133z" fill="hsla(218,54%,28%,1)" style="fill: rgb(184, 202, 234);"></path><path d="m398.118 491.141c10.884 5.299 24.003.771 29.302-10.114 6.06-12.448.996-29.77-1.994-37.821-.964-2.596-3.784-3.971-6.422-3.128-8.18 2.613-24.94 9.311-31 21.761-5.298 10.885-.77 24.003 10.114 29.302z" fill="hsla(213,60%,20%,1)" style="fill: rgb(214, 228, 245);"></path><path d="m419.021 440.073c-3.024.965-7.226 2.491-11.627 4.66 3 8.559 7.148 24.579 1.445 36.294-2.284 4.692-6.025 8.195-10.41 10.246 10.823 5.066 23.742.536 28.991-10.246 6.06-12.448.996-29.77-1.993-37.821-.962-2.59-3.773-3.973-6.406-3.133z" fill="hsla(218,54%,28%,1)" style="fill: rgb(184, 202, 234);"></path><path d="m314.132 491.141c10.884 5.299 24.003.771 29.302-10.114 6.06-12.448.996-29.77-1.993-37.821-.964-2.596-3.784-3.971-6.422-3.128-8.18 2.613-24.94 9.311-31 21.761-5.3 10.885-.772 24.003 10.113 29.302z" fill="hsla(213,60%,20%,1)" style="fill: rgb(214, 228, 245);"></path><path d="m335.035 440.073c-3.024.965-7.225 2.491-11.626 4.66 3 8.558 7.148 24.579 1.445 36.294-2.284 4.692-6.025 8.195-10.41 10.246 10.823 5.066 23.742.536 28.991-10.246 6.06-12.448.996-29.77-1.994-37.821-.963-2.59-3.774-3.973-6.406-3.133z" fill="hsla(218,54%,28%,1)" style="fill: rgb(184, 202, 234);"></path><path d="m364.044 395.745c10.884 5.299 24.003.771 29.302-10.114 6.06-12.448.996-29.77-1.993-37.821-.964-2.596-3.784-3.971-6.422-3.128-8.18 2.613-24.94 9.311-31 21.761-5.3 10.884-.772 24.003 10.113 29.302z" fill="hsla(213,60%,20%,1)" style="fill: rgb(214, 228, 245);"></path><path d="m384.947 344.677c-3.024.965-7.225 2.49-11.627 4.66 3 8.558 7.148 24.579 1.445 36.294-2.284 4.692-6.025 8.194-10.41 10.246 10.823 5.066 23.742.536 28.991-10.246 6.06-12.448.996-29.77-1.993-37.821-.963-2.59-3.774-3.974-6.406-3.133z" fill="hsla(218,54%,28%,1)" style="fill: rgb(184, 202, 234);"></path><path d="m120.121 395.745c10.884 5.299 24.003.771 29.302-10.114 6.06-12.448.996-29.77-1.993-37.821-.964-2.596-3.784-3.971-6.422-3.128-8.18 2.613-24.94 9.311-31 21.761-5.3 10.884-.772 24.003 10.113 29.302z" fill="hsla(213,60%,20%,1)" style="fill: rgb(214, 228, 245);"></path><path d="m141.024 344.677c-3.024.965-7.225 2.49-11.627 4.66 3 8.558 7.148 24.579 1.445 36.294-2.284 4.692-6.025 8.194-10.411 10.246 10.823 5.066 23.742.536 28.991-10.246 6.06-12.448.996-29.77-1.993-37.821-.962-2.59-3.773-3.974-6.405-3.133z" fill="hsla(218,54%,28%,1)" style="fill: rgb(184, 202, 234);"></path><path d="m57.434 491.141c10.884 5.299 24.003.771 29.302-10.114 6.06-12.448.996-29.77-1.993-37.821-.964-2.596-3.784-3.971-6.422-3.128-8.18 2.613-24.94 9.311-31 21.761-5.299 10.885-.771 24.003 10.113 29.302z" fill="hsla(213,60%,20%,1)" style="fill: rgb(214, 228, 245);"></path><path d="m78.337 440.073c-3.024.965-7.226 2.491-11.627 4.66 3 8.558 7.148 24.579 1.445 36.294-2.284 4.692-6.025 8.195-10.41 10.246 10.823 5.066 23.743.536 28.991-10.246 6.06-12.448.996-29.77-1.993-37.821-.962-2.59-3.773-3.973-6.406-3.133z" fill="hsla(218,54%,28%,1)" style="fill: rgb(184, 202, 234);"></path><path d="m138.504 491.141c10.884 5.299 24.003.771 29.302-10.114 6.06-12.448.996-29.77-1.993-37.821-.964-2.596-3.784-3.971-6.422-3.128-8.18 2.613-24.94 9.311-31 21.761-5.299 10.885-.771 24.003 10.113 29.302z" fill="hsla(213,60%,20%,1)" style="fill: rgb(214, 228, 245);"></path><path d="m159.407 440.073c-3.024.965-7.226 2.491-11.627 4.66 3 8.558 7.148 24.579 1.445 36.294-2.284 4.692-6.025 8.195-10.411 10.246 10.823 5.066 23.742.536 28.991-10.246 6.06-12.448.996-29.77-1.993-37.821-.961-2.59-3.772-3.973-6.405-3.133z" fill="hsla(218,54%,28%,1)" style="fill: rgb(184, 202, 234);"></path><path d="m36.499 395.745c10.884 5.299 24.003.771 29.302-10.114 6.06-12.448.996-29.77-1.994-37.821-.964-2.596-3.784-3.971-6.422-3.128-8.18 2.613-24.94 9.311-31 21.761-5.298 10.884-.77 24.003 10.114 29.302z" fill="hsla(213,60%,20%,1)" style="fill: rgb(214, 228, 245);"></path><path d="m57.402 344.677c-3.024.965-7.225 2.49-11.626 4.66 3 8.558 7.148 24.579 1.445 36.294-2.284 4.692-6.025 8.194-10.411 10.246 10.823 5.066 23.742.536 28.991-10.246 6.06-12.448.996-29.77-1.993-37.821-.962-2.59-3.774-3.974-6.406-3.133z" fill="hsla(218,54%,28%,1)" style="fill: rgb(184, 202, 234);"></path><g><path d="m380.811 87.295c-18.813-50.959-67.818-87.295-125.312-87.295-72.959 0-132.243 58.509-133.512 131.165-45.586 5.932-80.793 44.91-80.793 92.113 0 51.306 41.592 92.898 92.898 92.898h239.172c63.274 0 114.567-51.294 114.567-114.567 0-60.737-47.266-110.426-107.02-114.314z" fill="hsla(0,0%,13%,1)" style="fill: rgb(191, 191, 191);"></path></g><g><path d="m380.811 87.295c-18.813-50.959-67.818-87.295-125.312-87.295-25.162 0-48.696 6.961-68.787 19.06 15.5-6.294 32.446-9.77 50.206-9.77 56.383 0 104.601 34.944 124.187 84.355.704 1.776 2.355 3.011 4.257 3.187 58.265 5.387 103.888 54.395 103.888 114.067 0 41.175-21.726 77.271-54.335 97.466 42.679-16.664 72.916-58.177 72.916-106.756 0-60.737-47.265-110.426-107.02-114.314z" fill="hsla(199,0%,19%,1)"></path></g><path d="m216.945 508.046 101.615-149.54c2.328-3.427-.126-8.062-4.269-8.062h-46.532l40.947-87.203c1.607-3.423-.891-7.355-4.672-7.355h-62.27c-2.142 0-4.062 1.323-4.824 3.325l-47.863 125.752c-1.286 3.378 1.209 6.997 4.824 6.997h39.323c3.583 0 6.076 3.561 4.85 6.927l-36.824 101.127c-3.58 9.831 9.815 16.686 15.695 8.032z" fill="hsla(44,100%,20%,1)" style="fill: rgb(255, 255, 0);"></path><g fill="hsla(39,60%,36%,1)"><path d="m267.759 350.444 40.947-87.203c1.607-3.423-.891-7.355-4.672-7.355h-10.455l-40.947 87.203c-1.607 3.423.89 7.355 4.672 7.355z" fill="hsla(39,60%,36%,1)"></path><path d="m305.458 350.444-104.704 154.087c1.094 7.135 11.271 10.757 16.191 3.516l101.615-149.54c2.328-3.427-.126-8.062-4.269-8.062h-8.833z" fill="hsla(39,60%,36%,1)"></path></g></g></g></svg>