<!-- icon666.com - MILLIONS vector ICONS FREE --><svg id="Layer_1" enable-background="new 0 0 496.294 496.294" viewBox="0 0 496.294 496.294" xmlns="http://www.w3.org/2000/svg"><path d="m495.647 177.74c0 21.39-5.05 44.67-15.1 69.55-14.21 35.18-47.48 61.4-89 70.14-1.931.401-3.752.57-5.64.57-311.587-2.253-293.697-1.677-298.79-3.11-50.431-14.156-86.47-55.407-86.47-104.34 0-52.605 41.355-94.721 94.19-106.28 22.592-63.485 85.23-104.27 153.28-104.27 43.375 0 92.732 24.017 118 57.2 43.732 2.878 85.31 19.912 109.73 56.91 11.084 13.336 19.8 35.772 19.8 63.63z" fill="#b2ceff"></path><path d="m495.647 177.74c0 21.39-5.05 44.67-15.1 69.55-14.21 35.18-47.48 61.4-89 70.14-1.931.401-3.752.57-5.64.57-311.587-2.253-293.697-1.677-298.79-3.11-8.729-2.45-17.115-5.757-24.61-9.59 20.88-19.27 36.06-44.5 57.61-63.17 36.86-31.91 91.23-42.18 137.18-25.9 12.79 4.52 25.16 10.99 38.67 12.19 22.01 1.93 42.49-10.31 61.17-22.09 14.23-8.97 28.78-18.23 38.84-31.68 10.08-13.46 14.85-32.23 7.48-47.33-2.18-4.47-5.35-8.51-6.79-13.28-5.258-17.412 13.109-33.09 28.83-42.45 20.425 9.507 37.84 23.568 50.35 42.52 11.084 13.336 19.8 35.772 19.8 63.63z" fill="#9ebaeb"></path><path d="m320.787 324.88c-161.741 179.359-154.399 171.36-154.76 171.36-10.034.717-19.279-9.211-16.1-20.36 4.162-14.546-.674 2.378 25.16-88.08h-26.46c-10.891 0-18.713-10.737-15.14-21.2l47.68-139.05c2.22-6.46 8.31-10.8 15.14-10.8h92.25c12.431 0 20.057 13.554 13.75 24.18l-34.97 58.74c1.445.357-.259-.068 41.37 10.38 6.655 1.661 11.755 7.561 12.08 14.83z" fill="#ffd507"></path><path d="m320.787 324.88c-161.741 179.359-154.399 171.36-154.76 171.36-10.034.717-19.279-9.211-16.1-20.36 4.887-17.079.16-3.87 13.25-26.28 16.05-27.51 22.79-66.04 54.11-81.27 11.5-5.61 25.73-7.26 33.81-17.17 10.896-13.385 4.014-31.78 17.17-51.26l40.44 10.15c6.655 1.661 11.755 7.561 12.08 14.83z" fill="#ebc100"></path></svg>