<!-- icon666.com - MILLIONS vector ICONS FREE --><svg id="Layer_1" enable-background="new 0 0 512 512" viewBox="0 0 512 512" xmlns="http://www.w3.org/2000/svg" xmlns:xlink="http://www.w3.org/1999/xlink"><linearGradient id="SVGID_1_" gradientUnits="userSpaceOnUse" x1="401.528" x2="81.566" y1="129.475" y2="449.437"><stop offset="0" stop-color="#e93528"></stop><stop offset="1" stop-color="#f8bc16"></stop></linearGradient><path d="m485.767 244.524c-14.02-17.416-32.749-30.586-53.62-37.891-5.691-71.125-65.392-127.26-137.956-127.26-36.629 0-71.155 14.171-97.219 39.902-5.984 5.908-11.359 12.273-16.104 19.011-5.857-1.226-11.839-1.865-17.898-1.865-42.437 0-78.083 30.428-85.652 71.086-45.108 16.839-77.318 60.36-77.318 111.266 0 65.463 53.258 118.721 118.72 118.721h274.56c65.462 0 118.72-53.258 118.72-118.721 0-26.866-9.316-53.235-26.233-74.249zm-322.798-76.103c.618 0 1.232.021 1.847.041-3.851 10.117-6.513 20.705-7.897 31.592h-38.199c-1.92 0-3.828.05-5.725.141 8.818-18.836 27.954-31.774 49.974-31.774zm230.311 237.073h-274.56c-47.817 0-86.72-38.902-86.72-86.721 0-47.817 38.902-86.72 86.72-86.72h37.818c2.342 22.856 10.282 44.667 23.343 63.764 3.1 4.532 8.116 6.97 13.222 6.97 3.111 0 6.256-.906 9.018-2.795 7.294-4.989 9.163-14.945 4.175-22.239-12.105-17.699-18.504-38.44-18.504-59.98 0-.228-.025-.449-.034-.674.018-.275.049-.546.053-.824.798-57.843 48.52-104.901 106.381-104.901 58.669 0 106.4 47.731 106.4 106.4l-.012.868c-.045 7.467 5.081 13.973 12.352 15.676 38.861 9.1 67.068 44.62 67.068 84.455 0 47.819-38.902 86.721-86.72 86.721zm-246.311-296.262v-18.726c0-8.836 7.163-16 16-16s16 7.164 16 16v18.726c0 8.836-7.163 16-16 16s-16-7.164-16-16zm-64.392 7.102c-4.418-7.653-1.797-17.438 5.856-21.857 7.652-4.416 17.438-1.797 21.856 5.856l9.363 16.217c4.418 7.653 1.797 17.438-5.856 21.857-2.52 1.455-5.271 2.146-7.985 2.146-5.529 0-10.907-2.869-13.871-8.002zm-48.707 32.707c4.418-7.653 14.204-10.274 21.856-5.856l16.217 9.363c7.652 4.418 10.274 14.204 5.856 21.856-2.964 5.133-8.342 8.002-13.871 8.002-2.715 0-5.466-.691-7.985-2.146l-16.217-9.363c-7.652-4.418-10.274-14.203-5.856-21.856z" fill="url(#SVGID_1_)"></path></svg>